<svg width="20" height="20" viewBox="0 0 20 20" fill="none" xmlns="http://www.w3.org/2000/svg">
    <g clip-path="url(#clip0_713_34432)">
        <path
            d="M10.0055 2.48506C12.4562 2.48506 12.7464 2.49581 13.7102 2.5388C14.6059 2.57821 15.0896 2.72869 15.412 2.85409C15.8384 3.0189 16.1465 3.21954 16.4654 3.53841C16.7878 3.86086 16.9849 4.1654 17.1497 4.59176C17.2751 4.91422 17.4256 5.40148 17.465 6.2936C17.508 7.26097 17.5187 7.55118 17.5187 9.99825C17.5187 12.4489 17.508 12.7391 17.465 13.7029C17.4256 14.5986 17.2751 15.0823 17.1497 15.4047C16.9849 15.8311 16.7842 16.1392 16.4654 16.4581C16.1429 16.7805 15.8384 16.9776 15.412 17.1424C15.0896 17.2678 14.6023 17.4183 13.7102 17.4577C12.7428 17.5007 12.4526 17.5114 10.0055 17.5114C7.55488 17.5114 7.26467 17.5007 6.30089 17.4577C5.40519 17.4183 4.9215 17.2678 4.59905 17.1424C4.17269 16.9776 3.86457 16.777 3.5457 16.4581C3.22324 16.1356 3.02619 15.8311 2.86138 15.4047C2.73598 15.0823 2.5855 14.595 2.54609 13.7029C2.50309 12.7355 2.49235 12.4453 2.49235 9.99825C2.49235 7.54759 2.50309 7.25738 2.54609 6.2936C2.5855 5.3979 2.73598 4.91422 2.86138 4.59176C3.02619 4.1654 3.22683 3.85728 3.5457 3.53841C3.86815 3.21595 4.17269 3.0189 4.59905 2.85409C4.9215 2.72869 5.40877 2.57821 6.30089 2.5388C7.26467 2.49581 7.55488 2.48506 10.0055 2.48506ZM10.0055 0.833374C7.51547 0.833374 7.20376 0.844123 6.22565 0.887116C5.25112 0.93011 4.58113 1.08775 4.00072 1.31347C3.39522 1.54994 2.88287 1.86165 2.37411 2.37399C1.86177 2.88275 1.55006 3.3951 1.3136 3.99701C1.08788 4.58101 0.930232 5.24742 0.887239 6.22195C0.844245 7.20364 0.833496 7.51535 0.833496 10.0054C0.833496 12.4955 0.844245 12.8072 0.887239 13.7853C0.930232 14.7598 1.08788 15.4298 1.3136 16.0102C1.55006 16.6157 1.86177 17.1281 2.37411 17.6368C2.88287 18.1456 3.39522 18.4609 3.99713 18.6938C4.58113 18.9195 5.24754 19.0771 6.22207 19.1201C7.20018 19.1631 7.51189 19.1739 10.002 19.1739C12.492 19.1739 12.8037 19.1631 13.7818 19.1201C14.7564 19.0771 15.4264 18.9195 16.0068 18.6938C16.6087 18.4609 17.121 18.1456 17.6298 17.6368C18.1386 17.1281 18.4538 16.6157 18.6867 16.0138C18.9124 15.4298 19.0701 14.7634 19.1131 13.7889C19.1561 12.8108 19.1668 12.4991 19.1668 10.009C19.1668 7.51893 19.1561 7.20723 19.1131 6.22911C19.0701 5.25458 18.9124 4.58459 18.6867 4.00418C18.461 3.3951 18.1493 2.88275 17.637 2.37399C17.1282 1.86523 16.6159 1.54994 16.0139 1.31706C15.4299 1.09134 14.7635 0.933693 13.789 0.890699C12.8073 0.844123 12.4956 0.833374 10.0055 0.833374Z"
            fill="#6B7280"></path>
        <path
            d="M10.0055 5.29399C7.4044 5.29399 5.29412 7.40428 5.29412 10.0054C5.29412 12.6065 7.4044 14.7168 10.0055 14.7168C12.6067 14.7168 14.717 12.6065 14.717 10.0054C14.717 7.40428 12.6067 5.29399 10.0055 5.29399ZM10.0055 13.0616C8.31802 13.0616 6.94938 11.6929 6.94938 10.0054C6.94938 8.3179 8.31802 6.94926 10.0055 6.94926C11.693 6.94926 13.0617 8.3179 13.0617 10.0054C13.0617 11.6929 11.693 13.0616 10.0055 13.0616Z"
            fill="#6B7280"></path>
        <path
            d="M16.0032 5.1077C16.0032 5.71678 15.5088 6.20763 14.9033 6.20763C14.2942 6.20763 13.8033 5.7132 13.8033 5.1077C13.8033 4.49862 14.2978 4.00777 14.9033 4.00777C15.5088 4.00777 16.0032 4.5022 16.0032 5.1077Z"
            fill="#6B7280"></path>
    </g>
    <defs>
        <clipPath id="clip0_713_34432">
            <rect width="20" height="20" fill="white"></rect>
        </clipPath>
    </defs>
</svg>