<svg xmlns="http://www.w3.org/2000/svg" viewBox="0 -1 24 24" fill="none">
<path fill-rule="evenodd" clip-rule="evenodd" d="M16.0554 21.8804C12.8621 20.974 9.84919 19.2637 7.33755 16.752C4.82592 14.2404 3.11557 11.2275 2.20923 8.03424C2.20386 8.01531 2.19853 7.99654 2.19324 7.97793C2.04573 7.45891 1.93134 7.05644 1.9297 6.50455C1.92782 5.87378 2.13333 5.08354 2.44226 4.53359C2.97354 3.58782 4.11431 2.37577 5.09963 1.8774C5.95097 1.44679 6.95637 1.44679 7.80771 1.8774C8.64995 2.3034 9.58794 3.25696 10.1109 4.06122C10.7573 5.05556 10.7573 6.33743 10.1109 7.33176C9.93761 7.59821 9.69068 7.84473 9.40402 8.1309C9.31476 8.22001 9.21651 8.2844 9.28176 8.42029C9.92958 9.76957 10.8131 11.0352 11.9337 12.1558C13.0544 13.2765 14.32 14.16 15.6693 14.8078C15.81 14.8754 15.8654 14.779 15.9587 14.6856C16.2449 14.3989 16.4914 14.152 16.7578 13.9787C17.7522 13.3322 19.034 13.3322 20.0284 13.9787C20.8111 14.4877 21.7895 15.4462 22.2122 16.2819C22.6428 17.1332 22.6428 18.1386 22.2122 18.99C21.7138 19.9753 20.5018 21.116 19.556 21.6473C19.0061 21.9563 18.2158 22.1618 17.585 22.1599C17.0331 22.1582 16.6307 22.0439 16.1117 21.8964C16.0931 21.8911 16.0743 21.8857 16.0554 21.8804Z" fill="#6B7280"/>
</svg>