<svg width="20" height="20" viewBox="0 0 20 20" fill="none" xmlns="http://www.w3.org/2000/svg"><g clip-path="url(#clip0_713_34436)"><path d="M10.0002 19.1667C15.0628 19.1667 19.1668 15.0626 19.1668 10C19.1668 4.93743 15.0628 0.833374 10.0002 0.833374C4.93755 0.833374 0.833496 4.93743 0.833496 10C0.833496 15.0626 4.93755 19.1667 10.0002 19.1667Z" fill="white"></path><path d="M10.0002 0.833374C4.93755 0.833374 0.833496 4.93743 0.833496 10C0.833496 13.8855 3.24776 17.2051 6.65791 18.5405C6.57492 17.8162 6.50702 16.6996 6.68809 15.9074C6.85407 15.1907 7.75942 11.3505 7.75942 11.3505C7.75942 11.3505 7.48782 10.7998 7.48782 9.9925C7.48782 8.71746 8.22719 7.76684 9.14762 7.76684C9.93226 7.76684 10.3095 8.35532 10.3095 9.05697C10.3095 9.8416 9.81155 11.0186 9.54749 12.1125C9.32869 13.0254 10.0077 13.7723 10.9055 13.7723C12.5351 13.7723 13.7875 12.0522 13.7875 9.57754C13.7875 7.38207 12.2107 5.85052 9.95489 5.85052C7.34447 5.85052 5.81292 7.80457 5.81292 9.82651C5.81292 10.6112 6.1147 11.4561 6.49193 11.9164C6.56738 12.0069 6.57492 12.0899 6.55229 12.1804C6.48439 12.4671 6.32595 13.0933 6.29577 13.2216C6.25805 13.3876 6.15997 13.4253 5.98645 13.3423C4.83967 12.8066 4.12293 11.1393 4.12293 9.78879C4.12293 6.89922 6.22033 4.24352 10.1812 4.24352C13.3575 4.24352 15.8321 6.5069 15.8321 9.53982C15.8321 12.701 13.8404 15.2435 11.079 15.2435C10.1511 15.2435 9.27588 14.7607 8.98164 14.1873C8.98164 14.1873 8.52142 15.9376 8.40826 16.3677C8.20455 17.1674 7.64625 18.1633 7.26902 18.7744C8.12911 19.0384 9.03446 19.1818 9.98507 19.1818C15.0475 19.1818 19.1517 15.0775 19.1517 10.0151C19.1668 4.93763 15.0626 0.833374 10.0002 0.833374Z" fill="#6B7280"></path></g><defs><clipPath id="clip0_713_34436"><rect width="20" height="20" fill="white"></rect></clipPath></defs></svg>